<svg xmlns="http://www.w3.org/2000/svg" viewBox="0 0 147.06 236.43"><defs><style>.cls-1{font-size:12px;font-family:MyriadPro-Regular, Myriad Pro;}.cls-1,.cls-7{fill:#a63d97;}.cls-2{letter-spacing:0.01em;}.cls-3{fill:#4167b0;}.cls-21,.cls-4{fill:#ccc;}.cls-5{letter-spacing:2.58em;}.cls-21,.cls-6{letter-spacing:2.79em;}.cls-12,.cls-8{fill:#3ff;}.cls-13,.cls-9{fill:#f93;}.cls-10{letter-spacing:1.94em;}.cls-11,.cls-13{letter-spacing:0em;}.cls-12,.cls-14{letter-spacing:0em;}.cls-15{letter-spacing:2.36em;}.cls-16,.cls-17,.cls-18{fill:#c33;}.cls-16{letter-spacing:-0.01em;}.cls-18{letter-spacing:-0.01em;}.cls-19{fill:#696;}.cls-20{letter-spacing:0.02em;}</style></defs><title>jsblackbg</title><g id="Layer_2" data-name="Layer 2"><g id="Layer_1-2" data-name="Layer 1"><rect width="147.06" height="236.43"/><text class="cls-1" transform="translate(8.17 14.04)">fun<tspan class="cls-2" x="16.78" y="0">c</tspan><tspan x="22.31" y="0">tion </tspan><tspan class="cls-3" x="44.88" y="0">xinc </tspan><tspan class="cls-4" x="67.82" y="0">() {</tspan><tspan class="cls-4"><tspan x="0" y="14.4"> </tspan><tspan class="cls-5" x="2.54" y="14.4">	</tspan><tspan class="cls-6" x="0" y="28.8">	</tspan><tspan class="cls-7" x="36" y="28.8">if </tspan><tspan x="44.86" y="28.8">(x </tspan><tspan class="cls-8" x="56.36" y="28.8">&gt;=</tspan><tspan x="70.67" y="28.8"> </tspan><tspan class="cls-9" x="73.21" y="28.8">3</tspan><tspan x="79.37" y="28.8">) {</tspan><tspan x="0" y="43.2" xml:space="preserve">    </tspan><tspan class="cls-10" x="10.18" y="43.2">	</tspan><tspan class="cls-6" x="36" y="43.2">	</tspan><tspan class="cls-11" x="72" y="43.2">x</tspan><tspan class="cls-12" x="77.56" y="43.2">=</tspan><tspan class="cls-13" x="84.71" y="43.2">3</tspan><tspan class="cls-14" x="90.86" y="43.2">;</tspan><tspan x="0" y="57.6" xml:space="preserve">  </tspan><tspan class="cls-15" x="5.09" y="57.6">	</tspan><tspan x="36" y="57.6">}</tspan><tspan class="cls-6" x="0" y="72">	</tspan><tspan class="cls-7" x="36" y="72">else </tspan><tspan x="58.15" y="72">{</tspan><tspan x="0" y="86.4" xml:space="preserve">    </tspan><tspan class="cls-10" x="10.18" y="86.4">	</tspan><tspan class="cls-6" x="36" y="86.4">	</tspan><tspan class="cls-11" x="72" y="86.4">x</tspan><tspan class="cls-12" x="77.56" y="86.4">++</tspan><tspan class="cls-14" x="91.86" y="86.4">;</tspan><tspan x="0" y="100.8" xml:space="preserve">  </tspan><tspan class="cls-15" x="5.09" y="100.8">	</tspan><tspan x="36" y="100.8">}</tspan><tspan x="0" y="115.2" xml:space="preserve">  </tspan><tspan class="cls-15" x="5.09" y="115.2">	</tspan><tspan class="cls-16" x="36" y="115.2">c</tspan><tspan class="cls-17" x="41.3" y="115.2">onsol</tspan><tspan class="cls-18" x="68.72" y="115.2">e</tspan><tspan x="74.59" y="115.2">.</tspan><tspan class="cls-3" x="77.08" y="115.2">log</tspan><tspan x="93.2" y="115.2">(</tspan><tspan class="cls-6" x="0" y="129.6" xml:space="preserve">		</tspan><tspan class="cls-19" x="72" y="129.6">`x=</tspan><tspan class="cls-17" x="88.31" y="129.6">${</tspan><tspan x="97.87" y="129.6">x</tspan><tspan class="cls-17" x="103.43" y="129.6">}</tspan></tspan><tspan class="cls-19"><tspan class="cls-6" x="0" y="144" xml:space="preserve">		</tspan><tspan x="72" y="144" xml:space="preserve"> y=</tspan><tspan class="cls-17" x="87.35" y="144">${</tspan><tspan class="cls-4" x="96.91" y="144">y</tspan><tspan class="cls-17" x="102.56" y="144">}</tspan><tspan x="105.97" y="144"> </tspan><tspan class="cls-6" x="0" y="158.4" xml:space="preserve">		</tspan><tspan x="72" y="158.4"> </tspan><tspan class="cls-20" x="74.54" y="158.4">x</tspan><tspan x="80.28" y="158.4">y=</tspan><tspan class="cls-17" x="93.08" y="158.4">${</tspan><tspan class="cls-4" x="102.65" y="158.4">x</tspan><tspan class="cls-8" x="108.2" y="158.4">+</tspan><tspan class="cls-4" x="115.36" y="158.4">y</tspan><tspan class="cls-17" x="121.01" y="158.4">}</tspan><tspan x="124.42" y="158.4">`</tspan></tspan><tspan class="cls-4"><tspan class="cls-6" x="0" y="172.8">	</tspan><tspan x="36" y="172.8">);</tspan></tspan><tspan class="cls-21"><tspan x="0" y="187.2">	</tspan></tspan><tspan class="cls-8"><tspan class="cls-6" x="0" y="201.6">	</tspan><tspan x="36" y="201.6">change_blade</tspan><tspan class="cls-4" x="107.42" y="201.6">();</tspan></tspan><tspan class="cls-4"><tspan x="0" y="216">}</tspan></tspan></text></g></g></svg>